<svg xmlns="http://www.w3.org/2000/svg" width="51.058" height="51.058" viewBox="0 0 51.058 51.058"><g opacity="0.62"><path d="M36.967,0H14.09A14.106,14.106,0,0,0,0,14.09V36.968a14.106,14.106,0,0,0,14.09,14.09H36.967a14.106,14.106,0,0,0,14.09-14.09V14.09A14.106,14.106,0,0,0,36.967,0Zm9.561,36.968a9.571,9.571,0,0,1-9.56,9.56H14.09a9.57,9.57,0,0,1-9.56-9.56V14.09a9.571,9.571,0,0,1,9.56-9.56H36.967a9.571,9.571,0,0,1,9.56,9.56V36.968Z"/><path d="M53.838,40.97a12.87,12.87,0,1,0,12.87,12.87A12.885,12.885,0,0,0,53.838,40.97Zm0,21.308a8.438,8.438,0,1,1,8.439-8.438A8.448,8.448,0,0,1,53.838,62.278Z" transform="translate(-28.31 -28.311)"/><path d="M122.32,28.251a3.4,3.4,0,1,0,2.4.995A3.412,3.412,0,0,0,122.32,28.251Z" transform="translate(-83.13 -19.749)"/></g></svg>