<svg xmlns="http://www.w3.org/2000/svg" width="51.696" height="46.24" viewBox="0 0 51.696 46.24"><g transform="translate(0 -9.998)" opacity="0.62"><path d="M41.616,56.238a2.047,2.047,0,0,1-1.149-.353l-13-8.817L20.5,52.084a2.046,2.046,0,0,1-3.174-1.139l-3.5-13.266L1.315,32.9a2.047,2.047,0,0,1-.026-3.813L48.849,10.16A2.047,2.047,0,0,1,49.523,10a2.135,2.135,0,0,1,.247,0,2.04,2.04,0,0,1,1.311.581c.038.037.074.075.108.115a2.038,2.038,0,0,1,.5,1.2,2.076,2.076,0,0,1,0,.327,1.988,1.988,0,0,1-.034.233L43.626,54.575a2.047,2.047,0,0,1-2.01,1.663ZM28.61,42.9,40.189,50.75l6.246-32.775L23.875,39.685l4.681,3.175ZM18.972,41.15l1.55,5.874,3.34-2.4-4.374-2.967A2.04,2.04,0,0,1,18.972,41.15Zm-11.3-10.2,8.588,3.284a2.046,2.046,0,0,1,1.248,1.389L18.6,39.748a2.047,2.047,0,0,1,.616-1.262L40.715,17.8Z"/></g></svg>