<svg xmlns="http://www.w3.org/2000/svg" width="48.713" height="49.698" viewBox="0 0 48.713 49.698"><g transform="translate(-2.184)" opacity="0.62"><path d="M26.539,0A24.383,24.383,0,0,0,2.184,24.356,27.277,27.277,0,0,0,5.235,36.116a1.692,1.692,0,0,0,3.01-1.547A23.79,23.79,0,0,1,5.569,24.355,20.972,20.972,0,1,1,26.539,45.327a21.74,21.74,0,0,1-9.452-2.239,1.691,1.691,0,0,0-1.277-.1L5.152,46.393a1.692,1.692,0,1,0,1.03,3.224l10.016-3.2a24.9,24.9,0,0,0,10.342,2.3A24.356,24.356,0,1,0,26.539,0Z"/><path d="M61.253,64.075a1.692,1.692,0,0,0,2.062,2.684,3.687,3.687,0,0,0,1.695-3.35,9.134,9.134,0,0,0-2.121-3.766,8.4,8.4,0,0,0-3.3-2.823,3.664,3.664,0,0,0-2.5.12,5.969,5.969,0,0,0-3.516,3.3,5.741,5.741,0,0,0,.3,4.634,30.38,30.38,0,0,0,7.016,9.57l.034.031a30.387,30.387,0,0,0,10.306,5.933,6.677,6.677,0,0,0,2.169.382,5.241,5.241,0,0,0,2.468-.6,5.971,5.971,0,0,0,2.891-3.862,3.659,3.659,0,0,0-.155-2.487,8.393,8.393,0,0,0-3.173-2.977,9.13,9.13,0,0,0-3.98-1.692h0A3.684,3.684,0,0,0,68.3,71.224,1.692,1.692,0,0,0,71.2,72.978a3.106,3.106,0,0,1,.272-.4,13.214,13.214,0,0,1,4.036,2.654.407.407,0,0,1-.019.2,2.779,2.779,0,0,1-1.207,1.766,2.529,2.529,0,0,1-1.958.011,27.028,27.028,0,0,1-9.148-5.252l0,0a27.01,27.01,0,0,1-6.247-8.526,2.529,2.529,0,0,1-.205-1.948,2.777,2.777,0,0,1,1.621-1.394.4.4,0,0,1,.2-.04,13.206,13.206,0,0,1,3.082,3.718A3.166,3.166,0,0,1,61.253,64.075Z" transform="translate(-39.515 -43.872)"/></g></svg>